<svg width="20" height="19" viewBox="0 0 20 19" fill="none" xmlns="http://www.w3.org/2000/svg">
<path d="M4.50001 18.8333H0.333344V6.33333H4.50001V18.8333ZM2.41751 4.66667C1.26501 4.66667 0.333344 3.7325 0.333344 2.5825C0.333344 1.4325 1.26668 0.5 2.41751 0.5C3.56584 0.5 4.50001 1.43417 4.50001 2.5825C4.50001 3.7325 3.56584 4.66667 2.41751 4.66667ZM19.5 18.8333H15.4942V12.75C15.4942 11.2992 15.4667 9.43333 13.4117 9.43333C11.3258 9.43333 11.005 11.0133 11.005 12.645V18.8333H7.00001V6.32417H10.845V8.03333H10.8992C11.4342 7.05 12.7417 6.01333 14.6917 6.01333C18.75 6.01333 19.5 8.60416 19.5 11.9725V18.8333Z" fill="white"/>
</svg>
