<svg width="23" height="23" viewBox="0 0 23 23" fill="none" xmlns="http://www.w3.org/2000/svg">
<path d="M7 0.5C3.415 0.5 0.5 3.415 0.5 7V16C0.5 19.585 3.415 22.5 7 22.5H16C19.585 22.5 22.5 19.585 22.5 16V7C22.5 3.415 19.585 0.5 16 0.5H7ZM17.5 4.5C18.05 4.5 18.5 4.95 18.5 5.5C18.5 6.05 18.05 6.5 17.5 6.5C16.95 6.5 16.5 6.05 16.5 5.5C16.5 4.95 16.95 4.5 17.5 4.5ZM11.5 6C14.535 6 17 8.465 17 11.5C17 14.535 14.535 17 11.5 17C8.465 17 6 14.535 6 11.5C6 8.465 8.465 6 11.5 6ZM11.5 7C9.02 7 7 9.02 7 11.5C7 13.98 9.02 16 11.5 16C13.98 16 16 13.98 16 11.5C16 9.02 13.98 7 11.5 7Z" fill="white"/>
</svg>
