<svg width="26" height="13" viewBox="0 0 26 13" fill="none" xmlns="http://www.w3.org/2000/svg">
<path d="M25.2136 5.80873C25.2133 5.80844 25.213 5.80809 25.2127 5.8078L20.11 0.729684C19.7277 0.349265 19.1094 0.35068 18.7289 0.733004C18.3484 1.11528 18.3499 1.73359 18.7321 2.11406L22.1581 5.52343H1.47656C0.937207 5.52343 0.5 5.96063 0.5 6.49999C0.5 7.03934 0.937207 7.47655 1.47656 7.47655H22.1581L18.7322 10.8859C18.3499 11.2664 18.3484 11.8847 18.7289 12.267C19.1094 12.6493 19.7278 12.6507 20.11 12.2703L25.2127 7.19217C25.213 7.19188 25.2133 7.19154 25.2136 7.19125C25.5961 6.80951 25.5949 6.1892 25.2136 5.80873Z" fill="white"/>
</svg>
