<svg width="23" height="20" viewBox="0 0 23 20" fill="none" xmlns="http://www.w3.org/2000/svg">
<path d="M23 3.12142C22.139 3.50326 21.2743 3.7915 20.3159 3.88883C21.2743 3.31234 22.0417 2.354 22.4235 1.29834C21.4652 1.87484 20.5068 2.25667 19.4549 2.45133C18.4966 1.493 17.25 0.916504 15.9098 0.916504C13.3193 0.916504 11.2118 3.02409 11.2118 5.61084C11.2118 5.99642 11.2118 6.37825 11.3091 6.6665C7.37842 6.47559 3.93066 4.65251 1.62842 1.77751C1.14925 2.45133 0.958333 3.31234 0.958333 4.17334C0.958333 5.8055 1.81934 7.243 3.06592 8.104C2.2985 8.00667 1.53483 7.81576 0.958333 7.52751C0.958333 7.52751 0.958333 7.52751 0.958333 7.62484C0.958333 9.92334 2.58675 11.84 4.69434 12.2256C4.3125 12.3192 3.93066 12.4165 3.4515 12.4165C3.16325 12.4165 2.875 12.4165 2.58675 12.3192C3.16325 14.2358 4.889 15.5798 6.99658 15.5798C5.36816 16.8263 3.35417 17.59 1.14925 17.59C0.767415 17.59 0.381836 17.59 0 17.4964C2.10758 18.8366 4.60075 19.604 7.1875 19.604C15.9098 19.604 20.6042 12.4165 20.6042 6.18734C20.6042 5.99642 20.6042 5.8055 20.6042 5.61084C21.5625 4.94075 22.3299 4.07975 23 3.12142Z" fill="white"/>
</svg>
